<mxfile host="www.draw.io" modified="2023-07-18T04:47:55.731Z" agent="Mozilla/5.0 (Windows NT 10.0; Win64; x64) AppleWebKit/537.36 (KHTML, like Gecko) Chrome/114.0.0.0 Safari/537.36" etag="a-mBhRJTqYHfvnMCAEwB" version="21.5.2" type="device">
  <diagram id="qk96bbHJtCQS-nLckJSV" name="Page-1">
    <mxGraphModel dx="1434" dy="756" grid="1" gridSize="10" guides="1" tooltips="1" connect="1" arrows="1" fold="1" page="1" pageScale="1" pageWidth="850" pageHeight="1100" background="#222222" math="0" shadow="0">
      <root>
        <mxCell id="0" />
        <mxCell id="1" parent="0" />
        <mxCell id="WU0MDvvPuWrCMGKtuMHC-10" style="edgeStyle=orthogonalEdgeStyle;rounded=0;orthogonalLoop=1;jettySize=auto;html=1;exitX=0.5;exitY=1;exitDx=0;exitDy=0;entryX=0.622;entryY=-0.019;entryDx=0;entryDy=0;entryPerimeter=0;startArrow=classic;startFill=1;strokeColor=#FFFFFF;" parent="1" source="gqFaeBh5zX8QO3zzliL1-7" target="gqFaeBh5zX8QO3zzliL1-8" edge="1">
          <mxGeometry relative="1" as="geometry" />
        </mxCell>
        <mxCell id="gqFaeBh5zX8QO3zzliL1-7" value="Memoria" style="rounded=1;whiteSpace=wrap;html=1;fillColor=#dae8fc;strokeColor=#6c8ebf;" parent="1" vertex="1">
          <mxGeometry x="270" y="70" width="70" height="60" as="geometry" />
        </mxCell>
        <mxCell id="gqFaeBh5zX8QO3zzliL1-25" value="" style="edgeStyle=orthogonalEdgeStyle;rounded=0;orthogonalLoop=1;jettySize=auto;html=1;exitX=1.011;exitY=0.443;exitDx=0;exitDy=0;entryX=0.013;entryY=0.588;entryDx=0;entryDy=0;entryPerimeter=0;startArrow=classic;startFill=1;exitPerimeter=0;strokeColor=#ffffff;" parent="1" source="gqFaeBh5zX8QO3zzliL1-8" target="gqFaeBh5zX8QO3zzliL1-9" edge="1">
          <mxGeometry relative="1" as="geometry" />
        </mxCell>
        <mxCell id="WU0MDvvPuWrCMGKtuMHC-4" style="edgeStyle=orthogonalEdgeStyle;rounded=0;orthogonalLoop=1;jettySize=auto;html=1;exitX=0.75;exitY=1;exitDx=0;exitDy=0;entryX=0.5;entryY=0;entryDx=0;entryDy=0;strokeColor=#ffffff;" parent="1" source="gqFaeBh5zX8QO3zzliL1-8" target="gqFaeBh5zX8QO3zzliL1-35" edge="1">
          <mxGeometry relative="1" as="geometry" />
        </mxCell>
        <mxCell id="gqFaeBh5zX8QO3zzliL1-8" value="Interpretador" style="rounded=1;whiteSpace=wrap;html=1;fillColor=#d5e8d4;strokeColor=#82b366;" parent="1" vertex="1">
          <mxGeometry x="200" y="200" width="120" height="100" as="geometry" />
        </mxCell>
        <mxCell id="gqFaeBh5zX8QO3zzliL1-9" value="Pantalla&lt;br&gt;64 x 32" style="rounded=1;whiteSpace=wrap;html=1;fillColor=#f5f5f5;fontColor=#333333;strokeColor=#666666;" parent="1" vertex="1">
          <mxGeometry x="360" y="210" width="90" height="60" as="geometry" />
        </mxCell>
        <mxCell id="WU0MDvvPuWrCMGKtuMHC-11" style="edgeStyle=orthogonalEdgeStyle;rounded=0;orthogonalLoop=1;jettySize=auto;html=1;exitX=1;exitY=0.75;exitDx=0;exitDy=0;entryX=0;entryY=0.25;entryDx=0;entryDy=0;strokeColor=#ffffff;" parent="1" source="gqFaeBh5zX8QO3zzliL1-11" target="gqFaeBh5zX8QO3zzliL1-8" edge="1">
          <mxGeometry relative="1" as="geometry" />
        </mxCell>
        <mxCell id="gqFaeBh5zX8QO3zzliL1-11" value="Clock" style="rounded=1;whiteSpace=wrap;html=1;fillColor=#fff2cc;strokeColor=#d6b656;" parent="1" vertex="1">
          <mxGeometry x="30" y="160" width="90" height="60" as="geometry" />
        </mxCell>
        <mxCell id="WU0MDvvPuWrCMGKtuMHC-12" style="edgeStyle=orthogonalEdgeStyle;rounded=0;orthogonalLoop=1;jettySize=auto;html=1;exitX=0.5;exitY=0;exitDx=0;exitDy=0;entryX=0.203;entryY=1.008;entryDx=0;entryDy=0;entryPerimeter=0;startArrow=classic;startFill=1;strokeColor=#ffffff;" parent="1" source="gqFaeBh5zX8QO3zzliL1-18" target="gqFaeBh5zX8QO3zzliL1-8" edge="1">
          <mxGeometry relative="1" as="geometry" />
        </mxCell>
        <mxCell id="gqFaeBh5zX8QO3zzliL1-18" value="Timer&lt;br&gt;Delay" style="rounded=1;whiteSpace=wrap;html=1;fillColor=#fff2cc;strokeColor=#d6b656;" parent="1" vertex="1">
          <mxGeometry x="200" y="330" width="50" height="60" as="geometry" />
        </mxCell>
        <mxCell id="WU0MDvvPuWrCMGKtuMHC-3" style="edgeStyle=orthogonalEdgeStyle;rounded=0;orthogonalLoop=1;jettySize=auto;html=1;exitX=1;exitY=0.5;exitDx=0;exitDy=0;entryX=-0.001;entryY=0.71;entryDx=0;entryDy=0;entryPerimeter=0;strokeColor=#ffffff;" parent="1" source="gqFaeBh5zX8QO3zzliL1-26" target="gqFaeBh5zX8QO3zzliL1-8" edge="1">
          <mxGeometry relative="1" as="geometry" />
        </mxCell>
        <mxCell id="gqFaeBh5zX8QO3zzliL1-26" value="16 teclas" style="rounded=1;whiteSpace=wrap;html=1;fillColor=#fff2cc;strokeColor=#d6b656;" parent="1" vertex="1">
          <mxGeometry x="30" y="250" width="90" height="60" as="geometry" />
        </mxCell>
        <mxCell id="WU0MDvvPuWrCMGKtuMHC-9" style="edgeStyle=orthogonalEdgeStyle;rounded=0;orthogonalLoop=1;jettySize=auto;html=1;exitX=0.5;exitY=1;exitDx=0;exitDy=0;entryX=0.344;entryY=-0.014;entryDx=0;entryDy=0;entryPerimeter=0;startArrow=classic;startFill=1;strokeColor=#ffffff;" parent="1" source="gqFaeBh5zX8QO3zzliL1-29" target="gqFaeBh5zX8QO3zzliL1-8" edge="1">
          <mxGeometry relative="1" as="geometry" />
        </mxCell>
        <mxCell id="gqFaeBh5zX8QO3zzliL1-29" value="Registros" style="rounded=1;whiteSpace=wrap;html=1;fillColor=#fff2cc;strokeColor=#d6b656;" parent="1" vertex="1">
          <mxGeometry x="190" y="70" width="70" height="60" as="geometry" />
        </mxCell>
        <mxCell id="WU0MDvvPuWrCMGKtuMHC-6" style="edgeStyle=orthogonalEdgeStyle;rounded=0;orthogonalLoop=1;jettySize=auto;html=1;exitX=0.5;exitY=1;exitDx=0;exitDy=0;entryX=0.5;entryY=0;entryDx=0;entryDy=0;strokeColor=#ffffff;" parent="1" source="gqFaeBh5zX8QO3zzliL1-35" target="WU0MDvvPuWrCMGKtuMHC-5" edge="1">
          <mxGeometry relative="1" as="geometry" />
        </mxCell>
        <mxCell id="gqFaeBh5zX8QO3zzliL1-35" value="Timer&lt;br&gt;Sonido" style="rounded=1;whiteSpace=wrap;html=1;fillColor=#fff2cc;strokeColor=#d6b656;" parent="1" vertex="1">
          <mxGeometry x="260" y="330" width="60" height="60" as="geometry" />
        </mxCell>
        <mxCell id="WU0MDvvPuWrCMGKtuMHC-5" value="Parlante" style="rounded=1;whiteSpace=wrap;html=1;fillColor=#fff2cc;strokeColor=#d6b656;" parent="1" vertex="1">
          <mxGeometry x="260" y="410" width="60" height="30" as="geometry" />
        </mxCell>
      </root>
    </mxGraphModel>
  </diagram>
</mxfile>
